<?xml version="1.0" encoding="UTF-8" standalone="no"?>
<!-- Created with Inkscape (http://www.inkscape.org/) -->

<svg
   width="15.999999"
   height="15.999999"
   viewBox="0 0 4.233333 4.233333"
   version="1.1"
   id="svg1"
   sodipodi:docname="toolbar-icon.svg"
   inkscape:version="1.4.3 (0d15f75, 2025-12-25)"
   xmlns:inkscape="http://www.inkscape.org/namespaces/inkscape"
   xmlns:sodipodi="http://sodipodi.sourceforge.net/DTD/sodipodi-0.dtd"
   xmlns="http://www.w3.org/2000/svg"
   xmlns:svg="http://www.w3.org/2000/svg">
  <sodipodi:namedview
     id="namedview1"
     pagecolor="#ffffff"
     bordercolor="#000000"
     borderopacity="0.25"
     inkscape:showpageshadow="2"
     inkscape:pageopacity="0.0"
     inkscape:pagecheckerboard="0"
     inkscape:deskcolor="#d1d1d1"
     inkscape:zoom="44.815785"
     inkscape:cx="9.8179693"
     inkscape:cy="9.3382276"
     inkscape:window-width="3440"
     inkscape:window-height="1348"
     inkscape:window-x="0"
     inkscape:window-y="0"
     inkscape:window-maximized="1"
     inkscape:current-layer="svg1" />
  <defs
     id="defs1" />
  <path
     d="m 2.1166663,3.1749998 q -0.2189298,0 -0.4108824,-0.083006 Q 1.5138313,3.0100238 1.3685699,2.8647626 1.2233084,2.7184636 1.1403019,2.5275486 1.0583329,2.335596 1.0583329,2.1166662 q 0,-0.2189297 0.081969,-0.4108823 0.083006,-0.1919523 0.228268,-0.3372138 0.1452614,-0.1452614 0.337214,-0.2272304 0.1919526,-0.083006 0.4108824,-0.083006 0.2189297,0 0.4108824,0.083006 0.1919525,0.081969 0.3372139,0.2272304 Q 3.0100241,1.5138316 3.091993,1.7057842 3.175,1.8977368 3.175,2.1166665 3.175,2.3355963 3.091993,2.5275489 3.010024,2.7184639 2.8647626,2.8647629 2.7195012,3.0100243 2.5275487,3.0919933 2.335596,3.1749998 2.1166663,3.1749998 Z M 1.7680388,2.5524509 q 0.037353,0 0.063292,-0.024903 L 2.1177039,2.2391006 2.405114,2.5275484 q 0.023865,0.024902 0.061218,0.024902 0.036315,0 0.061218,-0.024902 0.024902,-0.02594 0.024902,-0.061218 0,-0.03839 -0.024902,-0.061217 L 2.2391009,2.1177041 2.5285862,1.8292563 q 0.024902,-0.025939 0.024902,-0.061218 0,-0.035278 -0.024902,-0.060181 -0.024902,-0.024902 -0.06018,-0.024902 -0.03424,0 -0.059143,0.024902 L 2.1177038,1.9973446 1.8282185,1.7088969 q -0.025939,-0.023864 -0.06018,-0.023864 -0.035278,0 -0.060181,0.024902 -0.024902,0.023864 -0.024902,0.060181 0,0.03424 0.024902,0.060179 L 1.9963069,2.1177041 1.7078591,2.4061518 q -0.024902,0.024903 -0.024902,0.060179 0,0.035278 0.024902,0.061217 0.024902,0.024903 0.060181,0.024902 z"
     id="text3"
     style="font-size:2.65621px;font-family:'SF Pro';-inkscape-font-specification:'SF Pro';text-align:center;text-anchor:middle;display:inline;fill:#000000;fill-opacity:1;stroke-width:0.0531242;stroke-linecap:round;stroke-opacity:0.5"
     aria-label="􀁡" />
  <path
     d="m 2.117707,0.367166 q -0.07489,0 -0.126896,-0.052006 -0.052007,-0.052006 -0.052007,-0.1268962 0,-0.072809 0.052007,-0.1248163 0.052006,-0.054087 0.126896,-0.054087 0.072809,0 0.1248158,0.054087 0.054087,0.052006 0.054087,0.1248163 0,0.07489 -0.054087,0.1268962 -0.052006,0.052006 -0.1248158,0.052006 z m 0.5949551,0.097773 q -0.07489,0 -0.1268962,-0.052006 -0.052006,-0.052006 -0.052006,-0.1268962 0,-0.072809 0.052006,-0.1248163 0.052006,-0.054087 0.1268962,-0.054087 0.072809,0 0.124815,0.054087 0.054087,0.052006 0.054087,0.1248163 0,0.07489 -0.054087,0.1268962 -0.052006,0.052006 -0.124815,0.052006 z m 0.5408681,0.2725144 q -0.074889,0 -0.1268961,-0.052006 -0.052006,-0.052006 -0.052006,-0.1268962 0,-0.072809 0.052006,-0.1248163 0.052006,-0.054087 0.1268961,-0.054087 0.072809,0 0.1248163,0.054087 0.054087,0.052006 0.054087,0.1248163 0,0.07489 -0.054087,0.1268962 -0.052006,0.052006 -0.1248163,0.052006 z m 0.4264539,0.428534 q -0.072809,0 -0.1268962,-0.052006 -0.052006,-0.054087 -0.052006,-0.1268961 0,-0.07489 0.052006,-0.1268962 0.054087,-0.052006 0.1268962,-0.052006 0.072809,0 0.1248163,0.052006 0.054087,0.052006 0.054087,0.1268962 0,0.072809 -0.054087,0.1268961 -0.052006,0.052006 -0.1248163,0.052006 z m 0.2725144,0.5325471 q -0.072809,0 -0.1268962,-0.052006 -0.052006,-0.054087 -0.052006,-0.1268962 0,-0.072809 0.052006,-0.1248163 0.054087,-0.054087 0.1268962,-0.054087 0.072809,0 0.1248163,0.054087 0.054087,0.052006 0.054087,0.1248163 0,0.072809 -0.054087,0.1268962 -0.052006,0.052006 -0.1248163,0.052006 z m 0.1019324,0.5970354 q -0.072809,0 -0.1268962,-0.052006 -0.052006,-0.054087 -0.052006,-0.1268962 0,-0.072809 0.052006,-0.1248164 0.054087,-0.054087 0.1268962,-0.054087 0.07489,0 0.1268961,0.054087 0.052006,0.052006 0.052006,0.1248164 0,0.072809 -0.052006,0.1268962 -0.052006,0.052006 -0.1268961,0.052006 z M 3.9524985,2.8926052 q -0.072809,0 -0.1268962,-0.052006 -0.052006,-0.052006 -0.052006,-0.1268962 0,-0.072809 0.052006,-0.1248163 0.054087,-0.054087 0.1268962,-0.054087 0.072809,0 0.1248163,0.054087 0.054087,0.052006 0.054087,0.1248163 0,0.074889 -0.054087,0.1268962 -0.052006,0.052006 -0.1248163,0.052006 z M 3.6799841,3.427232 q -0.072809,0 -0.1268962,-0.052007 -0.052006,-0.054087 -0.052006,-0.126896 0,-0.074889 0.052006,-0.1268961 0.054087,-0.052007 0.1268962,-0.052007 0.072809,0 0.1248163,0.052007 0.054087,0.052007 0.054087,0.1268961 0,0.072809 -0.054087,0.126896 -0.052006,0.052007 -0.1248163,0.052007 z M 3.2535302,3.8536858 q -0.074889,0 -0.1268961,-0.054087 -0.052006,-0.052007 -0.052006,-0.1248158 0,-0.072809 0.052006,-0.1248158 0.052006,-0.054087 0.1268961,-0.054087 0.072809,0 0.1248163,0.054087 0.054087,0.052007 0.054087,0.1248158 0,0.072809 -0.054087,0.1248158 -0.052006,0.054087 -0.1248163,0.054087 z M 2.7126621,4.1262002 q -0.07489,0 -0.1268962,-0.054087 -0.052006,-0.052007 -0.052006,-0.1248158 0,-0.072809 0.052006,-0.1268961 0.052006,-0.052007 0.1268962,-0.052007 0.072809,0 0.124815,0.052007 0.054087,0.054087 0.054087,0.1268961 0,0.072809 -0.054087,0.1248158 -0.052006,0.054087 -0.124815,0.054087 z M 2.117707,4.2239725 q -0.07489,0 -0.126896,-0.054087 Q 1.938804,4.1178792 1.938804,4.04507 q 0,-0.072809 0.052007,-0.1268961 0.052006,-0.052007 0.126896,-0.052007 0.072809,0 0.1248158,0.052007 0.054087,0.054087 0.054087,0.1268961 0,0.072809 -0.054087,0.1248157 -0.052006,0.054087 -0.1248158,0.054087 z M 1.522752,4.1262002 q -0.074889,0 -0.126896,-0.054087 -0.052007,-0.052007 -0.052007,-0.1248158 0,-0.072809 0.052007,-0.126896 0.052007,-0.052006 0.126896,-0.052006 0.072809,0 0.1248158,0.052006 0.054087,0.054087 0.054087,0.126896 0,0.072809 -0.054087,0.1248158 -0.052007,0.054087 -0.1248158,0.054087 z M 0.98188383,3.8536858 q -0.0748894,0 -0.12689604,-0.054087 -0.0520065,-0.052007 -0.0520065,-0.1248158 0,-0.072809 0.0520065,-0.1248158 0.0520065,-0.054087 0.12689604,-0.054087 0.0728092,0 0.12481577,0.054087 0.054087,0.052007 0.054087,0.1248158 0,0.072809 -0.054087,0.1248158 -0.052007,0.054087 -0.12481577,0.054087 z M 0.55334978,3.427232 q -0.0728092,0 -0.12689604,-0.052007 -0.0520065,-0.054087 -0.0520065,-0.126896 0,-0.074889 0.0520065,-0.1268961 0.0540868,-0.052007 0.12689604,-0.052007 0.0728092,0 0.12481578,0.052007 0.0540868,0.052007 0.0540868,0.1268961 0,0.072809 -0.0540868,0.126896 -0.0520065,0.052007 -0.12481578,0.052007 z M 0.28083543,2.8926046 q -0.0728093,0 -0.12689605,-0.052006 -0.0520065,-0.052006 -0.0520065,-0.1268962 0,-0.072809 0.0520065,-0.1248163 0.0540868,-0.054087 0.12689605,-0.054087 0.0748894,0 0.12689604,0.054087 0.0520065,0.052006 0.0520065,0.1248163 0,0.074889 -0.0520065,0.1268962 -0.0520065,0.052006 -0.12689604,0.052006 z M 0.17890251,2.2955693 q -0.0728092,0 -0.12689604,-0.052006 Q -3e-8,2.1894758 -3e-8,2.116667 q 0,-0.072809 0.0520065,-0.1248163 0.0540868,-0.054087 0.12689604,-0.054087 0.0728093,0 0.12481577,0.054087 0.0540868,0.052006 0.0540868,0.1248163 0,0.072809 -0.0540868,0.1268962 -0.0520065,0.052006 -0.12481577,0.052006 z M 0.28083543,1.698534 q -0.0728093,0 -0.12689605,-0.052006 -0.0520065,-0.054087 -0.0520065,-0.1268961 0,-0.072809 0.0520065,-0.1248163 0.0540868,-0.054087 0.12689605,-0.054087 0.0748894,0 0.12689604,0.054087 0.0520065,0.052006 0.0520065,0.1248163 0,0.072809 -0.0520065,0.1268961 -0.0520065,0.052006 -0.12689604,0.052006 z M 0.55334978,1.1659868 q -0.0728092,0 -0.12689604,-0.052006 -0.0520065,-0.054087 -0.0520065,-0.1268962 0,-0.07489 0.0520065,-0.1268962 0.0540868,-0.052006 0.12689604,-0.052006 0.0728092,0 0.12481578,0.052006 0.0540868,0.052006 0.0540868,0.1268962 0,0.072809 -0.0540868,0.1268962 -0.0520065,0.052006 -0.12481578,0.052006 z m 0.42853405,-0.428534 q -0.0748894,0 -0.12689604,-0.052006 -0.0520065,-0.052006 -0.0520065,-0.1268962 0,-0.072809 0.0520065,-0.1248163 0.0520065,-0.054087 0.12689604,-0.054087 0.0728092,0 0.12481577,0.054087 0.054087,0.052006 0.054087,0.1248163 0,0.07489 -0.054087,0.1268962 -0.052007,0.052006 -0.12481577,0.052006 z M 1.522752,0.4649384 q -0.074889,0 -0.126896,-0.052006 -0.052007,-0.052006 -0.052007,-0.1268962 0,-0.072809 0.052007,-0.1248163 0.052007,-0.054087 0.126896,-0.054087 0.072809,0 0.1248158,0.054087 0.054087,0.052006 0.054087,0.1248163 0,0.07489 -0.054087,0.1268962 -0.052007,0.052006 -0.1248158,0.052006 z"
     id="text2"
     style="font-size:3.175px;font-family:'SF Pro';-inkscape-font-specification:'SF Pro';text-align:center;text-anchor:middle;display:inline;stroke-width:0.106509;stroke-linecap:round;stroke-opacity:0.5;fill:#000000;fill-opacity:1"
     aria-label="􁅃" />
</svg>
