<?xml version="1.0" encoding="UTF-8" standalone="no"?>
<!-- Created with Inkscape (http://www.inkscape.org/) -->

<svg
   width="15.999999"
   height="15.999999"
   viewBox="0 0 4.233333 4.233333"
   version="1.1"
   id="svg1"
   sodipodi:docname="toolbar-icon-on.svg"
   inkscape:version="1.4.3 (0d15f75, 2025-12-25)"
   xmlns:inkscape="http://www.inkscape.org/namespaces/inkscape"
   xmlns:sodipodi="http://sodipodi.sourceforge.net/DTD/sodipodi-0.dtd"
   xmlns="http://www.w3.org/2000/svg"
   xmlns:svg="http://www.w3.org/2000/svg">
  <sodipodi:namedview
     id="namedview1"
     pagecolor="#ffffff"
     bordercolor="#000000"
     borderopacity="0.25"
     inkscape:showpageshadow="2"
     inkscape:pageopacity="0.0"
     inkscape:pagecheckerboard="0"
     inkscape:deskcolor="#d1d1d1"
     inkscape:zoom="64.328991"
     inkscape:cx="5.4407818"
     inkscape:cy="7.0963339"
     inkscape:window-width="3440"
     inkscape:window-height="1348"
     inkscape:window-x="0"
     inkscape:window-y="0"
     inkscape:window-maximized="0"
     inkscape:current-layer="svg1" />
  <defs
     id="defs1" />
  <path
     d="m 2.1166668,3.1749999 q -0.2189298,0 -0.4108824,-0.083006 Q 1.5138317,3.0100243 1.3685703,2.864763 1.2233088,2.7184639 1.1403023,2.527549 1.0583333,2.3355962 1.0583333,2.1166665 q 0,-0.2189298 0.081969,-0.4108825 Q 1.2233085,1.5138314 1.3685703,1.3685699 1.5138317,1.2233085 1.7057844,1.1413395 1.897737,1.058333 2.1166668,1.058333 q 0.2189297,0 0.4108825,0.083006 0.1919525,0.081969 0.337214,0.2272304 0.1452614,0.1452615 0.2272304,0.3372141 0.083006,0.1919527 0.083006,0.4108825 0,0.2189297 -0.083006,0.4108824 Q 3.0100247,2.7184639 2.8647633,2.864763 2.7195018,3.0100243 2.5275493,3.0919934 2.3355965,3.1749994 2.1166668,3.1749999 Z M 1.7680393,2.5524508 q 0.037353,0 0.063292,-0.024902 L 2.1177043,2.2391011 2.4051145,2.527549 q 0.023865,0.024902 0.061218,0.024902 0.036315,0 0.061218,-0.024902 0.024901,-0.02594 0.024901,-0.061218 0,-0.03839 -0.024901,-0.061218 L 2.2391014,2.1177041 2.5285868,1.8292562 q 0.024901,-0.02594 0.024901,-0.061218 0,-0.035277 -0.024901,-0.06018 -0.024901,-0.024901 -0.06018,-0.024901 -0.03424,0 -0.059142,0.024901 L 2.1177043,1.9973445 1.828219,1.7088967 q -0.02594,-0.023864 -0.06018,-0.023864 -0.035277,0 -0.06018,0.024901 -0.024901,0.023864 -0.024901,0.06018 0,0.03424 0.024901,0.06018 L 1.9963073,2.1177041 1.7078595,2.4061518 q -0.024902,0.024902 -0.024902,0.06018 0,0.035277 0.024901,0.061218 0.024902,0.024902 0.060181,0.024902 z"
     id="text3"
     style="font-size:2.65621px;font-family:'SF Pro';-inkscape-font-specification:'SF Pro';text-align:center;text-anchor:middle;display:inline;stroke-width:0.0531242;stroke-linecap:round;stroke-opacity:0.5"
     aria-label="􀁡" />
  <path
     d="M -1.5e-7,1.2118231 V 0.71283705 q 0,-0.3564186 0.179359,-0.5334782 Q 0.36101745,-1.5e-7 0.72203495,-1.5e-7 H 1.2026251 v 0.3702156 H 0.72663395 q -0.1724607,0 -0.2644396,0.091979 -0.091979,0.089679 -0.091979,0.2690386 V 1.2118233 Z M 1.5176533,0.37021545 V -1.5e-7 h 1.1980264 v 0.3702156 z M 3.8631176,1.2118231 V 0.73123295 q 0,-0.1793591 -0.094278,-0.2690386 -0.091979,-0.091979 -0.2621401,-0.091979 H 3.0307077 V -1.5e-7 h 0.4805902 q 0.3610176,0 0.5403766,0.179359 0.1816586,0.1770596 0.1816586,0.5334782 V 1.2118231 Z m 0,1.4946587 V 1.5268512 H 4.233333 V 2.7064818 Z M 3.0307077,4.2333331 V 3.8631176 H 3.506699 q 0.1701612,0 0.2621402,-0.089679 0.094279,-0.091979 0.094279,-0.2713381 V 3.0215099 H 4.233333 V 3.520496 q 0,0.3564185 -0.1816585,0.533478 -0.179359,0.1793591 -0.5403765,0.1793591 z m -1.5130544,0 V 3.8631176 h 1.1980264 v 0.3702155 z m -0.79561835,0 q -0.3610175,0 -0.5426761,-0.1793591 Q -1.5e-7,3.8769145 -1.5e-7,3.520496 V 3.0215099 h 0.3702155 v 0.4805902 q 0,0.179359 0.091979,0.271338 0.091979,0.08968 0.2644396,0.08968 H 1.2026253 V 4.233333 Z M -1.5e-7,2.7064818 V 1.5268512 h 0.3702155 v 1.1796306 z"
     id="text2"
     style="font-size:3.175px;font-family:'SF Pro';-inkscape-font-specification:'SF Pro';text-align:center;text-anchor:middle;stroke-width:0;stroke-linecap:round;stroke-opacity:0.5"
     aria-label="􀓔" />
</svg>
